<svg width="307" height="438" viewBox="0 0 307 438" fill="none" xmlns="http://www.w3.org/2000/svg">
<path d="M302.493 350.662L301.61 350.193L302.493 350.662ZM302.493 350.662L301.61 350.193L264.142 420.721L265.025 421.19L265.908 421.659L303.376 351.131L302.493 350.662ZM238.531 437.115V436.115H31V437.115V438.115H238.531V437.115ZM1 407.115H2V30.5H1H0V407.115H1ZM31 0.5V1.5H276V0.5V-0.5H31V0.5ZM306 30.5H305V336.587H306H307V30.5H306ZM276 0.5V1.5C292.016 1.5 305 14.4837 305 30.5H306H307C307 13.3792 293.121 -0.5 276 -0.5V0.5ZM1 30.5H2C2 14.4837 14.9837 1.5 31 1.5V0.5V-0.5C13.8792 -0.5 0 13.3792 0 30.5H1ZM31 437.115V436.115C14.9837 436.115 2 423.132 2 407.115H1H0C0 424.236 13.8792 438.115 31 438.115V437.115ZM265.025 421.19L264.142 420.721C259.109 430.194 249.258 436.115 238.531 436.115V437.115V438.115C249.998 438.115 260.528 431.786 265.908 421.659L265.025 421.19ZM302.493 350.662L303.376 351.131C305.756 346.653 307 341.659 307 336.587H306H305C305 341.332 303.836 346.003 301.61 350.193L302.493 350.662Z" fill="url(#paint0_linear_770_10726)"/>
<defs>
<linearGradient id="paint0_linear_770_10726" x1="-72.5429" y1="-111.822" x2="504.982" y2="42.258" gradientUnits="userSpaceOnUse">
<stop offset="0.180668" stop-color="#5952EA" stop-opacity="0"/>
<stop offset="0.353858" stop-color="#3B09B2" stop-opacity="0.28"/>
<stop offset="0.669966" stop-color="#211A3D"/>
<stop offset="0.817188" stop-color="#759EF7" stop-opacity="0"/>
</linearGradient>
</defs>
</svg>
