<svg width="23" height="23" viewBox="0 0 23 23" fill="none" xmlns="http://www.w3.org/2000/svg">
<g clip-path="url(#clip0_770_11666)">
<path d="M4.10938 15.3952C4.10938 12.0445 6.92229 9.32868 10.1775 9.32868L12.0503 9.32812C15.3061 9.32812 18.1097 12.0445 18.1097 15.3946V18.8277C18.1097 19.093 18.0043 19.3475 17.8167 19.5351C17.6291 19.7227 17.3747 19.8281 17.1094 19.8281H5.10974C4.84443 19.8281 4.58998 19.7227 4.40238 19.5351C4.21477 19.3475 4.10938 19.093 4.10938 18.8277V15.3952ZM10.1775 11.3286C8.00572 11.3286 6.10938 13.1701 6.10938 15.3952V17.8281H16.1097V15.3946C16.1097 13.1663 14.2184 11.3284 12.0503 11.3281L10.1775 11.3286Z" fill="#5E58FF"/>
<path d="M13.5845 6.30331C12.9343 6.95356 12.0546 7.32154 11.1357 7.32839L11.1095 7.32849L11.0854 7.3284C10.1658 7.32207 9.28527 6.95404 8.63455 6.30331C7.97814 5.6469 7.60938 4.75662 7.60938 3.82831C7.60938 2.9 7.97814 2.00971 8.63455 1.3533C9.29096 0.696893 10.1812 0.328125 11.1095 0.328125C12.0378 0.328125 12.9281 0.696893 13.5845 1.3533C14.241 2.00971 14.6097 2.9 14.6097 3.82831C14.6097 4.75662 14.241 5.6469 13.5845 6.30331ZM11.1095 2.32812C10.7117 2.32812 10.3301 2.48618 10.0488 2.76751C9.76743 3.04885 9.60938 3.43043 9.60938 3.82831C9.60938 4.22618 9.76743 4.60775 10.0488 4.88909C10.3301 5.17043 10.7117 5.32849 11.1095 5.32849C11.5074 5.32849 11.889 5.17043 12.1703 4.88909C12.4517 4.60775 12.6097 4.22619 12.6097 3.82831C12.6097 3.43043 12.4517 3.04885 12.1703 2.76751C11.889 2.48618 11.5074 2.32812 11.1095 2.32812Z" fill="#5E58FF"/>
<path d="M6.60938 7.07812C6.60938 8.32077 5.60202 9.32812 4.35938 9.32812C3.11673 9.32812 2.10938 8.32077 2.10938 7.07812C2.10938 5.83548 3.11673 4.82812 4.35938 4.82812C5.60202 4.82812 6.60938 5.83548 6.60938 7.07812Z" fill="#5E58FF"/>
<path d="M4.1538 10.3281C1.71234 10.3281 0.609619 12.3654 0.609619 14.8783V17.5783C0.609619 17.9928 0.945619 18.3283 1.35962 18.3283H2.60962V15.3283C2.60962 11.6993 4.31846 10.8798 5.33519 10.3922L5.43453 10.3445C5.31016 10.3336 5.18472 10.3281 5.05817 10.3281H4.1538Z" fill="#5E58FF"/>
<path d="M18.0634 10.3281C20.5049 10.3281 21.6076 12.3654 21.6076 14.8783V17.5783C21.6076 17.9928 21.2716 18.3283 20.8576 18.3283H19.6076V15.3283C19.6076 11.6993 17.8988 10.8798 16.882 10.3922L16.7827 10.3445C16.9071 10.3336 17.0325 10.3281 17.1591 10.3281H18.0634Z" fill="#5E58FF"/>
<path d="M17.8594 9.32812C19.102 9.32812 20.1094 8.32077 20.1094 7.07812C20.1094 5.83548 19.102 4.82812 17.8594 4.82812C16.6167 4.82812 15.6094 5.83548 15.6094 7.07812C15.6094 8.32077 16.6167 9.32812 17.8594 9.32812Z" fill="#5E58FF"/>
</g>
<defs>
<clipPath id="clip0_770_11666">
<rect width="22" height="22" fill="white" transform="translate(0.109375 0.328125)"/>
</clipPath>
</defs>
</svg>
