<svg width="25" height="25" viewBox="0 0 25 25" fill="none" xmlns="http://www.w3.org/2000/svg">
<path fill-rule="evenodd" clip-rule="evenodd" d="M14.257 4.67236C14.2218 4.58669 14.1429 4.52384 14.0478 4.50546C13.9525 4.4871 13.8541 4.51571 13.7861 4.58145L8.68017 9.52536C8.58524 9.61728 8.57172 9.75971 8.64781 9.86617C8.72391 9.97264 8.86864 10.0137 8.99408 9.96453L13.3876 8.24111L17.9824 15.1976C18.0607 15.3161 18.2212 15.3587 18.3532 15.296C18.485 15.2333 18.5449 15.0861 18.4912 14.9559L14.257 4.67236ZM11.473 11.4014C11.5468 11.281 11.5121 11.1272 11.3928 11.0459C11.2735 10.9645 11.1084 10.9821 11.0112 11.0866L4.0714 18.5407C4.00479 18.6122 3.98289 18.7117 4.01375 18.8025C4.04461 18.8933 4.12367 18.962 4.22187 18.9833L11.1616 20.4931C11.2936 20.5218 11.4288 20.459 11.4854 20.3424C11.5421 20.226 11.5046 20.0879 11.3957 20.0118L7.75437 17.4636L11.473 11.4014ZM20.689 13.1735C20.644 13.0481 20.5097 12.9722 20.3717 12.9938C20.2337 13.0154 20.1325 13.1284 20.1325 13.2608V17.5084L11.6626 17.6654C11.5147 17.6681 11.3935 17.7771 11.383 17.9167C11.3725 18.0563 11.4762 18.1805 11.6222 18.203L22.668 19.9078C22.7672 19.9232 22.8676 19.8881 22.9324 19.8155C22.9972 19.7429 23.0171 19.6435 22.9847 19.5535L20.689 13.1735Z" fill="#5E58FF" stroke="#5E58FF" stroke-width="0.2" stroke-linecap="round" stroke-linejoin="round"/>
</svg>
