<svg width="32" height="33" viewBox="0 0 32 33" fill="none" xmlns="http://www.w3.org/2000/svg">
<path fill-rule="evenodd" clip-rule="evenodd" d="M26.6666 7.16667H5.33325C4.59687 7.16667 3.99992 7.76362 3.99992 8.5V24.5C3.99992 25.2364 4.59687 25.8333 5.33325 25.8333H26.6666C27.403 25.8333 27.9999 25.2364 27.9999 24.5V8.5C27.9999 7.76362 27.403 7.16667 26.6666 7.16667ZM5.33325 4.5C3.12412 4.5 1.33325 6.29086 1.33325 8.5V24.5C1.33325 26.7091 3.12411 28.5 5.33325 28.5H26.6666C28.8757 28.5 30.6666 26.7091 30.6666 24.5V8.5C30.6666 6.29086 28.8757 4.5 26.6666 4.5H5.33325Z" fill="white"/>
<path d="M7.41064 14.1192C6.73885 13.7684 6.49465 12.9286 6.87358 12.2723C7.23047 11.6541 8.01114 11.4271 8.64385 11.7575L15.9523 16.5738L23.2604 11.7577C23.8931 11.4273 24.6738 11.6543 25.0307 12.2724C25.4096 12.9288 25.1654 13.7686 24.4936 14.1194L16.6437 19.2184C16.4227 19.3338 16.1836 19.3812 15.9508 19.3676C15.7188 19.3807 15.4807 19.3332 15.2605 19.2182L7.41064 14.1192Z" fill="#BDA0FF"/>
</svg>
