<svg width="32" height="33" viewBox="0 0 32 33" fill="none" xmlns="http://www.w3.org/2000/svg">
<path d="M30.6666 5.83365C30.6666 4.36699 29.4666 3.16699 27.9999 3.16699H3.99991C2.53325 3.16699 1.33325 4.36699 1.33325 5.83365V23.1817C1.33325 24.5285 2.53325 25.8484 3.99991 25.8484H10.3447L13.9698 29.8336C14.6428 30.5026 15.0887 30.6751 15.9999 30.7682C16.5519 30.7763 17.4002 30.5126 17.9999 29.8336L21.6551 25.8484H27.9999C29.4666 25.8484 30.6666 24.6484 30.6666 23.1817V5.83365ZM3.99991 5.83365H27.9999V23.1817H20.6666L15.9999 28.0622L11.3332 23.1817H3.99991V5.83365Z" fill="white"/>
<path d="M10.6666 9.8335H21.3332C22.0696 9.8335 22.6666 10.4304 22.6666 11.1668C22.6666 11.9032 22.0696 12.5002 21.3332 12.5002H10.6666C9.93021 12.5002 9.33325 11.9032 9.33325 11.1668C9.33325 10.4304 9.93021 9.8335 10.6666 9.8335Z" fill="#BDA0FF"/>
<path d="M10.6666 15.167H15.9999C16.7363 15.167 17.3332 15.764 17.3332 16.5004C17.3332 17.2367 16.7363 17.8337 15.9999 17.8337H10.6666C9.93021 17.8337 9.33325 17.2367 9.33325 16.5004C9.33325 15.764 9.93021 15.167 10.6666 15.167Z" fill="#BDA0FF"/>
</svg>
