<svg width="32" height="33" viewBox="0 0 32 33" fill="none" xmlns="http://www.w3.org/2000/svg">
<path fill-rule="evenodd" clip-rule="evenodd" d="M25.3334 5.83365H6.66675C5.93037 5.83365 5.33342 6.43061 5.33342 7.16699V25.8336C5.33342 26.57 5.93037 27.1669 6.66675 27.1669H25.3334C26.0698 27.1669 26.6668 26.57 26.6668 25.8336V7.16699C26.6668 6.43061 26.0698 5.83365 25.3334 5.83365ZM6.66675 3.16699C4.45761 3.16699 2.66675 4.95785 2.66675 7.16699V25.8336C2.66675 28.0428 4.45761 29.8336 6.66675 29.8336H25.3334C27.5426 29.8336 29.3334 28.0428 29.3334 25.8336V7.16699C29.3334 4.95785 27.5426 3.16699 25.3334 3.16699H6.66675Z" fill="white"/>
<path d="M10.6666 21.8331V27.1664H13.3332V21.8331H26.6666V19.1664H13.3332V13.8331H26.6666V11.1664H13.3332V5.83301H10.6666V11.1664H5.33325V13.8331H10.6666V19.1664H5.33325V21.8331H10.6666Z" fill="#BDA0FF"/>
</svg>
